<svg width="52" height="39" viewBox="0 0 52 39" fill="none" xmlns="http://www.w3.org/2000/svg">
<path d="M37.8125 13.3411C37.8125 13.7886 37.6347 14.2178 37.3182 14.5343C37.0018 14.8508 36.5726 15.0286 36.125 15.0286C35.6774 15.0286 35.2482 14.8508 34.9318 14.5343C34.6153 14.2178 34.4375 13.7886 34.4375 13.3411C34.4375 12.8935 34.6153 12.4643 34.9318 12.1478C35.2482 11.8314 35.6774 11.6536 36.125 11.6536C36.5726 11.6536 37.0018 11.8314 37.3182 12.1478C37.6347 12.4643 37.8125 12.8935 37.8125 13.3411ZM32.75 18.4036C33.1976 18.4036 33.6268 18.2258 33.9432 17.9093C34.2597 17.5928 34.4375 17.1636 34.4375 16.7161C34.4375 16.2685 34.2597 15.8393 33.9432 15.5228C33.6268 15.2064 33.1976 15.0286 32.75 15.0286C32.3024 15.0286 31.8732 15.2064 31.5568 15.5228C31.2403 15.8393 31.0625 16.2685 31.0625 16.7161C31.0625 17.1636 31.2403 17.5928 31.5568 17.9093C31.8732 18.2258 32.3024 18.4036 32.75 18.4036ZM41.1875 16.7161C41.1875 17.1636 41.0097 17.5928 40.6932 17.9093C40.3768 18.2258 39.9476 18.4036 39.5 18.4036C39.0524 18.4036 38.6232 18.2258 38.3068 17.9093C37.9903 17.5928 37.8125 17.1636 37.8125 16.7161C37.8125 16.2685 37.9903 15.8393 38.3068 15.5228C38.6232 15.2064 39.0524 15.0286 39.5 15.0286C39.9476 15.0286 40.3768 15.2064 40.6932 15.5228C41.0097 15.8393 41.1875 16.2685 41.1875 16.7161ZM36.125 21.7786C36.5726 21.7786 37.0018 21.6008 37.3182 21.2843C37.6347 20.9678 37.8125 20.5386 37.8125 20.0911C37.8125 19.6435 37.6347 19.2143 37.3182 18.8978C37.0018 18.5814 36.5726 18.4036 36.125 18.4036C35.6774 18.4036 35.2482 18.5814 34.9318 18.8978C34.6153 19.2143 34.4375 19.6435 34.4375 20.0911C34.4375 20.5386 34.6153 20.9678 34.9318 21.2843C35.2482 21.6008 35.6774 21.7786 36.125 21.7786ZM14.1875 11.6536H17.5625V15.0286H20.9375V18.4036H17.5625V21.7786H14.1875V18.4036H10.8125V15.0286H14.1875V11.6536Z" fill="white"/>
<path d="M9.29714 4.00253C9.23949 3.78824 9.22468 3.56467 9.25355 3.34465C9.28242 3.12462 9.3544 2.91245 9.46538 2.72027C9.57635 2.5281 9.72414 2.35971 9.90029 2.22473C10.0764 2.08975 10.2775 1.99084 10.4919 1.93366L17.0124 0.185407C17.2365 0.12567 17.4706 0.112794 17.7 0.147583C17.9293 0.182371 18.1491 0.264077 18.3454 0.387597C18.5418 0.511118 18.7106 0.6738 18.8413 0.865483C18.9719 1.05717 19.0617 1.27373 19.1049 1.50166C21.3155 1.23503 23.6611 1.10678 26 1.10678C28.43 1.10678 30.8701 1.24516 33.155 1.53203C33.1945 1.30065 33.2818 1.08005 33.4113 0.884316C33.5408 0.688584 33.7098 0.522029 33.9074 0.395296C34.1049 0.268562 34.3268 0.184437 34.5587 0.148297C34.7906 0.112157 35.0275 0.124796 35.2543 0.185407L41.7748 1.93366C42.0236 2.00026 42.2538 2.12293 42.4479 2.29228C42.642 2.46162 42.7947 2.67314 42.8944 2.91063C42.9941 3.14812 43.0381 3.40528 43.023 3.66241C43.008 3.91953 42.9342 4.1698 42.8075 4.39403C43.28 4.69778 43.7053 5.03528 44.0664 5.39641C45.4434 6.77341 46.6989 8.94016 47.762 11.3769C48.842 13.8508 49.7836 16.7465 50.4789 19.6997C51.1741 22.6528 51.6264 25.7072 51.7074 28.4949C51.7884 31.2489 51.5083 33.9017 50.6004 35.9537C50.1864 36.8749 49.4919 37.6418 48.6161 38.1449C47.7403 38.6479 46.7279 38.8614 45.7235 38.7549C43.577 38.5288 41.9604 37.4252 40.6171 36.146C39.7903 35.363 38.9431 34.3708 38.123 33.419C37.6978 32.9195 37.2793 32.4335 36.881 31.9914C34.424 29.2779 31.4911 26.8378 26 26.8378C20.5089 26.8378 17.576 29.2779 15.119 31.9914C14.7174 32.4335 14.3023 32.9195 13.877 33.419C13.0569 34.3708 12.2098 35.3597 11.3829 36.146C10.0396 37.4285 8.42301 38.5288 6.27651 38.7549C5.27214 38.8614 4.25977 38.6479 3.38396 38.1449C2.50815 37.6418 1.81366 36.8749 1.39964 35.9537C0.488387 33.9017 0.211637 31.2455 0.289262 28.4949C0.370262 25.7072 0.829262 22.6562 1.52114 19.6997C2.21639 16.7465 3.16139 13.8508 4.23801 11.3769C5.30114 8.94016 6.55664 6.77341 7.93026 5.39641C8.37147 4.96365 8.86195 4.58418 9.39164 4.26578C9.35279 4.17969 9.32118 4.0905 9.29714 3.99916V4.00253ZM16.1686 5.39303C13.2088 6.01741 11.2108 6.88816 10.3198 7.78253C9.38826 8.71403 8.33864 10.4252 7.33289 12.7269C6.26592 15.2298 5.42116 17.8216 4.80839 20.4725C4.16105 23.1351 3.77782 25.855 3.66426 28.5928C3.59001 31.1409 3.87351 33.2098 4.48439 34.5868C4.60949 34.855 4.8154 35.0773 5.07324 35.2226C5.33108 35.3678 5.62792 35.4288 5.92214 35.3968C7.02576 35.282 7.98089 34.7252 9.05751 33.7025C9.77301 33.0208 10.4075 32.2749 11.1331 31.4278C11.582 30.9013 12.0646 30.3377 12.6181 29.7268C15.4059 26.6454 19.1758 23.4662 26 23.4662C32.8243 23.4662 36.5941 26.6454 39.3819 29.7268C39.9354 30.3377 40.418 30.9013 40.8669 31.4278C41.5891 32.2749 42.227 33.0208 42.9425 33.7025C44.0158 34.7252 44.9709 35.282 46.0779 35.4002C46.3725 35.4319 46.6696 35.3704 46.9275 35.2245C47.1854 35.0786 47.3911 34.8556 47.5156 34.5868C48.1231 33.2098 48.41 31.1443 48.3358 28.5928C48.2221 25.855 47.8389 23.1351 47.1916 20.4725C46.5788 17.8217 45.734 15.2298 44.6671 12.7269C43.6614 10.4252 42.6084 8.71066 41.6803 7.78253C40.7893 6.88816 38.7913 6.01741 35.8314 5.39303C32.9626 4.78891 29.4965 4.48178 26 4.48178C22.5035 4.48178 19.0374 4.78891 16.1686 5.39303Z" fill="white"/>
</svg>
